<mxfile host="app.diagrams.net" modified="2024-03-20T11:06:32.402Z" agent="Mozilla/5.0 (Windows NT 10.0; Win64; x64; rv:123.0) Gecko/20100101 Firefox/123.0" etag="9tD5o3aRMR6ijM9GjyBs" version="24.0.7" type="github">
  <diagram name="第 1 页" id="S_1NR3iz1IwgQ-Ev80Fq">
    <mxGraphModel dx="2250" dy="939" grid="0" gridSize="10" guides="1" tooltips="1" connect="1" arrows="1" fold="1" page="0" pageScale="1" pageWidth="827" pageHeight="1169" math="0" shadow="0">
      <root>
        <mxCell id="0" />
        <mxCell id="1" parent="0" />
        <mxCell id="GY7boE5zjYNBEzBdmvgy-1" value="" style="endArrow=classic;html=1;rounded=0;" edge="1" parent="1">
          <mxGeometry width="50" height="50" relative="1" as="geometry">
            <mxPoint x="-707" y="254" as="sourcePoint" />
            <mxPoint x="-425" y="254" as="targetPoint" />
          </mxGeometry>
        </mxCell>
        <mxCell id="GY7boE5zjYNBEzBdmvgy-2" value="" style="shape=flexArrow;endArrow=classic;html=1;rounded=0;fillColor=#ffe6cc;strokeColor=#d79b00;" edge="1" parent="1">
          <mxGeometry width="50" height="50" relative="1" as="geometry">
            <mxPoint x="-382" y="254" as="sourcePoint" />
            <mxPoint x="-286" y="254" as="targetPoint" />
          </mxGeometry>
        </mxCell>
        <mxCell id="GY7boE5zjYNBEzBdmvgy-3" value="&lt;font size=&quot;1&quot;&gt;&lt;b style=&quot;font-size: 18px;&quot;&gt;分段擦除&lt;/b&gt;&lt;/font&gt;" style="text;html=1;align=center;verticalAlign=middle;resizable=0;points=[];autosize=1;strokeColor=none;fillColor=none;" vertex="1" parent="1">
          <mxGeometry x="-379" y="206" width="90" height="34" as="geometry" />
        </mxCell>
        <mxCell id="GY7boE5zjYNBEzBdmvgy-4" value="" style="shape=flexArrow;endArrow=classic;html=1;rounded=0;endWidth=19;endSize=2.44;width=1;fillColor=#1ba1e2;strokeColor=#006EAF;" edge="1" parent="1">
          <mxGeometry width="50" height="50" relative="1" as="geometry">
            <mxPoint x="-659" y="254" as="sourcePoint" />
            <mxPoint x="-659" y="224" as="targetPoint" />
          </mxGeometry>
        </mxCell>
        <mxCell id="GY7boE5zjYNBEzBdmvgy-5" value="" style="shape=flexArrow;endArrow=classic;html=1;rounded=0;endWidth=19;endSize=2.44;width=1;fillColor=#1ba1e2;strokeColor=#006EAF;" edge="1" parent="1">
          <mxGeometry width="50" height="50" relative="1" as="geometry">
            <mxPoint x="-635" y="254" as="sourcePoint" />
            <mxPoint x="-635" y="224" as="targetPoint" />
          </mxGeometry>
        </mxCell>
        <mxCell id="GY7boE5zjYNBEzBdmvgy-6" value="" style="shape=flexArrow;endArrow=classic;html=1;rounded=0;endWidth=19;endSize=2.44;width=1;fillColor=#1ba1e2;strokeColor=#006EAF;" edge="1" parent="1">
          <mxGeometry width="50" height="50" relative="1" as="geometry">
            <mxPoint x="-682" y="254" as="sourcePoint" />
            <mxPoint x="-682" y="224" as="targetPoint" />
          </mxGeometry>
        </mxCell>
        <mxCell id="GY7boE5zjYNBEzBdmvgy-7" value="" style="shape=flexArrow;endArrow=classic;html=1;rounded=0;fillColor=#60a917;strokeColor=#2D7600;endWidth=19;endSize=2.44;width=1;" edge="1" parent="1">
          <mxGeometry width="50" height="50" relative="1" as="geometry">
            <mxPoint x="-618" y="254" as="sourcePoint" />
            <mxPoint x="-618" y="284" as="targetPoint" />
          </mxGeometry>
        </mxCell>
        <mxCell id="GY7boE5zjYNBEzBdmvgy-8" value="" style="shape=flexArrow;endArrow=classic;html=1;rounded=0;fillColor=#60a917;strokeColor=#2D7600;endWidth=19;endSize=2.44;width=1;" edge="1" parent="1">
          <mxGeometry width="50" height="50" relative="1" as="geometry">
            <mxPoint x="-595" y="254" as="sourcePoint" />
            <mxPoint x="-595" y="284" as="targetPoint" />
          </mxGeometry>
        </mxCell>
        <mxCell id="GY7boE5zjYNBEzBdmvgy-9" value="" style="shape=flexArrow;endArrow=classic;html=1;rounded=0;fillColor=#60a917;strokeColor=#2D7600;endWidth=19;endSize=2.44;width=1;" edge="1" parent="1">
          <mxGeometry width="50" height="50" relative="1" as="geometry">
            <mxPoint x="-574" y="254" as="sourcePoint" />
            <mxPoint x="-574" y="284" as="targetPoint" />
          </mxGeometry>
        </mxCell>
        <mxCell id="GY7boE5zjYNBEzBdmvgy-10" value="" style="shape=flexArrow;endArrow=classic;html=1;rounded=0;endWidth=19;endSize=2.44;width=1;fillColor=#1ba1e2;strokeColor=#006EAF;" edge="1" parent="1">
          <mxGeometry width="50" height="50" relative="1" as="geometry">
            <mxPoint x="-554" y="254" as="sourcePoint" />
            <mxPoint x="-554" y="224" as="targetPoint" />
          </mxGeometry>
        </mxCell>
        <mxCell id="GY7boE5zjYNBEzBdmvgy-11" value="" style="shape=flexArrow;endArrow=classic;html=1;rounded=0;fillColor=#60a917;strokeColor=#2D7600;endWidth=19;endSize=2.44;width=1;" edge="1" parent="1">
          <mxGeometry width="50" height="50" relative="1" as="geometry">
            <mxPoint x="-533" y="253" as="sourcePoint" />
            <mxPoint x="-533" y="283" as="targetPoint" />
          </mxGeometry>
        </mxCell>
        <mxCell id="GY7boE5zjYNBEzBdmvgy-12" value="" style="shape=flexArrow;endArrow=classic;html=1;rounded=0;fillColor=#60a917;strokeColor=#2D7600;endWidth=19;endSize=2.44;width=1;" edge="1" parent="1">
          <mxGeometry width="50" height="50" relative="1" as="geometry">
            <mxPoint x="-511" y="254" as="sourcePoint" />
            <mxPoint x="-511" y="284" as="targetPoint" />
          </mxGeometry>
        </mxCell>
        <mxCell id="GY7boE5zjYNBEzBdmvgy-13" value="" style="shape=flexArrow;endArrow=classic;html=1;rounded=0;endWidth=19;endSize=2.44;width=1;fillColor=#1ba1e2;strokeColor=#006EAF;" edge="1" parent="1">
          <mxGeometry width="50" height="50" relative="1" as="geometry">
            <mxPoint x="-490" y="254" as="sourcePoint" />
            <mxPoint x="-490" y="224" as="targetPoint" />
          </mxGeometry>
        </mxCell>
        <mxCell id="GY7boE5zjYNBEzBdmvgy-14" value="&lt;font size=&quot;1&quot;&gt;&lt;b&gt;&lt;font style=&quot;font-size: 18px;&quot;&gt;Dir_Traces&lt;/font&gt;&lt;/b&gt;&lt;/font&gt;" style="text;html=1;align=center;verticalAlign=middle;resizable=0;points=[];autosize=1;strokeColor=none;fillColor=none;" vertex="1" parent="1">
          <mxGeometry x="-631" y="168" width="110" height="34" as="geometry" />
        </mxCell>
        <mxCell id="GY7boE5zjYNBEzBdmvgy-15" value="&lt;font size=&quot;1&quot;&gt;&lt;b&gt;&lt;font style=&quot;font-size: 18px;&quot;&gt;Label&lt;/font&gt;&lt;/b&gt;&lt;/font&gt;" style="text;html=1;align=center;verticalAlign=middle;resizable=0;points=[];autosize=1;strokeColor=none;fillColor=none;" vertex="1" parent="1">
          <mxGeometry x="-791" y="168" width="65" height="34" as="geometry" />
        </mxCell>
        <mxCell id="GY7boE5zjYNBEzBdmvgy-16" value="&lt;div style=&quot;font-size: 17px;&quot;&gt;&lt;font style=&quot;font-size: 17px;&quot;&gt;&lt;b&gt;&lt;font style=&quot;font-size: 17px;&quot;&gt;0&lt;/font&gt;&lt;/b&gt;&lt;/font&gt;&lt;/div&gt;&lt;div style=&quot;font-size: 17px;&quot;&gt;&lt;font style=&quot;font-size: 17px;&quot;&gt;&lt;b&gt;&lt;font style=&quot;font-size: 17px;&quot;&gt;0&lt;br&gt;&lt;/font&gt;&lt;/b&gt;&lt;/font&gt;&lt;/div&gt;&lt;div style=&quot;font-size: 17px;&quot;&gt;&lt;font style=&quot;font-size: 17px;&quot;&gt;&lt;b&gt;&lt;font style=&quot;font-size: 17px;&quot;&gt;1&lt;/font&gt;&lt;/b&gt;&lt;/font&gt;&lt;/div&gt;&lt;div style=&quot;font-size: 17px;&quot;&gt;&lt;font style=&quot;font-size: 17px;&quot;&gt;&lt;b&gt;&lt;font style=&quot;font-size: 17px;&quot;&gt;&lt;font style=&quot;font-size: 17px;&quot;&gt;0&lt;/font&gt;&lt;br&gt;&lt;/font&gt;&lt;/b&gt;&lt;/font&gt;&lt;/div&gt;" style="rounded=0;whiteSpace=wrap;html=1;" vertex="1" parent="1">
          <mxGeometry x="-775.5" y="207" width="34" height="80" as="geometry" />
        </mxCell>
        <mxCell id="GY7boE5zjYNBEzBdmvgy-17" value="" style="shape=umlDestroy;whiteSpace=wrap;html=1;strokeWidth=3;targetShapes=umlLifeline;fillColor=#e51400;fontColor=#ffffff;strokeColor=#B20000;" vertex="1" parent="1">
          <mxGeometry x="-496" y="204" width="10" height="14" as="geometry" />
        </mxCell>
        <mxCell id="GY7boE5zjYNBEzBdmvgy-18" value="" style="shape=umlDestroy;whiteSpace=wrap;html=1;strokeWidth=3;targetShapes=umlLifeline;fillColor=#e51400;fontColor=#ffffff;strokeColor=#B20000;" vertex="1" parent="1">
          <mxGeometry x="-642" y="207" width="10" height="14" as="geometry" />
        </mxCell>
        <mxCell id="GY7boE5zjYNBEzBdmvgy-19" value="" style="shape=umlDestroy;whiteSpace=wrap;html=1;strokeWidth=3;targetShapes=umlLifeline;fillColor=#e51400;fontColor=#ffffff;strokeColor=#B20000;" vertex="1" parent="1">
          <mxGeometry x="-579" y="287" width="10" height="14" as="geometry" />
        </mxCell>
        <mxCell id="GY7boE5zjYNBEzBdmvgy-20" value="" style="endArrow=classic;html=1;rounded=0;" edge="1" parent="1">
          <mxGeometry width="50" height="50" relative="1" as="geometry">
            <mxPoint x="-191" y="254" as="sourcePoint" />
            <mxPoint x="91" y="254" as="targetPoint" />
          </mxGeometry>
        </mxCell>
        <mxCell id="GY7boE5zjYNBEzBdmvgy-21" value="" style="shape=flexArrow;endArrow=classic;html=1;rounded=0;endWidth=19;endSize=2.44;width=1;fillColor=#1ba1e2;strokeColor=#006EAF;" edge="1" parent="1">
          <mxGeometry width="50" height="50" relative="1" as="geometry">
            <mxPoint x="-143" y="254" as="sourcePoint" />
            <mxPoint x="-143" y="224" as="targetPoint" />
          </mxGeometry>
        </mxCell>
        <mxCell id="GY7boE5zjYNBEzBdmvgy-22" value="" style="shape=flexArrow;endArrow=classic;html=1;rounded=0;endWidth=19;endSize=2.44;width=1;fillColor=#1ba1e2;strokeColor=#006EAF;" edge="1" parent="1">
          <mxGeometry width="50" height="50" relative="1" as="geometry">
            <mxPoint x="-166" y="254" as="sourcePoint" />
            <mxPoint x="-166" y="224" as="targetPoint" />
          </mxGeometry>
        </mxCell>
        <mxCell id="GY7boE5zjYNBEzBdmvgy-23" value="" style="shape=flexArrow;endArrow=classic;html=1;rounded=0;fillColor=#60a917;strokeColor=#2D7600;endWidth=19;endSize=2.44;width=1;" edge="1" parent="1">
          <mxGeometry width="50" height="50" relative="1" as="geometry">
            <mxPoint x="-102" y="254" as="sourcePoint" />
            <mxPoint x="-102" y="284" as="targetPoint" />
          </mxGeometry>
        </mxCell>
        <mxCell id="GY7boE5zjYNBEzBdmvgy-24" value="" style="shape=flexArrow;endArrow=classic;html=1;rounded=0;fillColor=#60a917;strokeColor=#2D7600;endWidth=19;endSize=2.44;width=1;" edge="1" parent="1">
          <mxGeometry width="50" height="50" relative="1" as="geometry">
            <mxPoint x="-79" y="254" as="sourcePoint" />
            <mxPoint x="-79" y="284" as="targetPoint" />
          </mxGeometry>
        </mxCell>
        <mxCell id="GY7boE5zjYNBEzBdmvgy-25" value="" style="shape=flexArrow;endArrow=classic;html=1;rounded=0;endWidth=19;endSize=2.44;width=1;fillColor=#1ba1e2;strokeColor=#006EAF;" edge="1" parent="1">
          <mxGeometry width="50" height="50" relative="1" as="geometry">
            <mxPoint x="-38" y="254" as="sourcePoint" />
            <mxPoint x="-38" y="224" as="targetPoint" />
          </mxGeometry>
        </mxCell>
        <mxCell id="GY7boE5zjYNBEzBdmvgy-26" value="" style="shape=flexArrow;endArrow=classic;html=1;rounded=0;fillColor=#60a917;strokeColor=#2D7600;endWidth=19;endSize=2.44;width=1;" edge="1" parent="1">
          <mxGeometry width="50" height="50" relative="1" as="geometry">
            <mxPoint x="-17" y="253" as="sourcePoint" />
            <mxPoint x="-17" y="283" as="targetPoint" />
          </mxGeometry>
        </mxCell>
        <mxCell id="GY7boE5zjYNBEzBdmvgy-27" value="" style="shape=flexArrow;endArrow=classic;html=1;rounded=0;fillColor=#60a917;strokeColor=#2D7600;endWidth=19;endSize=2.44;width=1;" edge="1" parent="1">
          <mxGeometry width="50" height="50" relative="1" as="geometry">
            <mxPoint x="5" y="254" as="sourcePoint" />
            <mxPoint x="5" y="284" as="targetPoint" />
          </mxGeometry>
        </mxCell>
        <mxCell id="GY7boE5zjYNBEzBdmvgy-28" value="&lt;font size=&quot;1&quot;&gt;&lt;b&gt;&lt;font style=&quot;font-size: 18px;&quot;&gt;Dir_Traces&lt;/font&gt;&lt;/b&gt;&lt;/font&gt;" style="text;html=1;align=center;verticalAlign=middle;resizable=0;points=[];autosize=1;strokeColor=none;fillColor=none;" vertex="1" parent="1">
          <mxGeometry x="-115" y="168" width="110" height="34" as="geometry" />
        </mxCell>
        <mxCell id="GY7boE5zjYNBEzBdmvgy-29" value="&lt;font size=&quot;1&quot;&gt;&lt;b&gt;&lt;font style=&quot;font-size: 18px;&quot;&gt;Label&lt;/font&gt;&lt;/b&gt;&lt;/font&gt;" style="text;html=1;align=center;verticalAlign=middle;resizable=0;points=[];autosize=1;strokeColor=none;fillColor=none;" vertex="1" parent="1">
          <mxGeometry x="-275" y="168" width="65" height="34" as="geometry" />
        </mxCell>
        <mxCell id="GY7boE5zjYNBEzBdmvgy-30" value="&lt;div style=&quot;font-size: 17px;&quot;&gt;&lt;font style=&quot;font-size: 17px;&quot;&gt;&lt;b&gt;&lt;font style=&quot;font-size: 17px;&quot;&gt;0&lt;/font&gt;&lt;/b&gt;&lt;/font&gt;&lt;/div&gt;&lt;div style=&quot;font-size: 17px;&quot;&gt;&lt;font style=&quot;font-size: 17px;&quot;&gt;&lt;b&gt;&lt;font style=&quot;font-size: 17px;&quot;&gt;0&lt;br&gt;&lt;/font&gt;&lt;/b&gt;&lt;/font&gt;&lt;/div&gt;&lt;div style=&quot;font-size: 17px;&quot;&gt;&lt;font style=&quot;font-size: 17px;&quot;&gt;&lt;b&gt;&lt;font style=&quot;font-size: 17px;&quot;&gt;1&lt;/font&gt;&lt;/b&gt;&lt;/font&gt;&lt;/div&gt;&lt;div style=&quot;font-size: 17px;&quot;&gt;&lt;font style=&quot;font-size: 17px;&quot;&gt;&lt;b&gt;&lt;font style=&quot;font-size: 17px;&quot;&gt;&lt;font style=&quot;font-size: 17px;&quot;&gt;0&lt;/font&gt;&lt;br&gt;&lt;/font&gt;&lt;/b&gt;&lt;/font&gt;&lt;/div&gt;" style="rounded=0;whiteSpace=wrap;html=1;" vertex="1" parent="1">
          <mxGeometry x="-259.5" y="207" width="34" height="80" as="geometry" />
        </mxCell>
        <mxCell id="GY7boE5zjYNBEzBdmvgy-31" value="" style="endArrow=classic;html=1;rounded=0;" edge="1" parent="1">
          <mxGeometry width="50" height="50" relative="1" as="geometry">
            <mxPoint x="-707" y="84" as="sourcePoint" />
            <mxPoint x="-425" y="84" as="targetPoint" />
          </mxGeometry>
        </mxCell>
        <mxCell id="GY7boE5zjYNBEzBdmvgy-32" value="" style="shape=flexArrow;endArrow=classic;html=1;rounded=0;fillColor=#ffe6cc;strokeColor=#d79b00;" edge="1" parent="1">
          <mxGeometry width="50" height="50" relative="1" as="geometry">
            <mxPoint x="-382" y="84" as="sourcePoint" />
            <mxPoint x="-286" y="84" as="targetPoint" />
          </mxGeometry>
        </mxCell>
        <mxCell id="GY7boE5zjYNBEzBdmvgy-33" value="&lt;font size=&quot;1&quot;&gt;&lt;b style=&quot;font-size: 18px;&quot;&gt;连续擦除&lt;/b&gt;&lt;/font&gt;" style="text;html=1;align=center;verticalAlign=middle;resizable=0;points=[];autosize=1;strokeColor=none;fillColor=none;" vertex="1" parent="1">
          <mxGeometry x="-378" y="36" width="90" height="34" as="geometry" />
        </mxCell>
        <mxCell id="GY7boE5zjYNBEzBdmvgy-34" value="" style="shape=flexArrow;endArrow=classic;html=1;rounded=0;endWidth=19;endSize=2.44;width=1;fillColor=#1ba1e2;strokeColor=#006EAF;" edge="1" parent="1">
          <mxGeometry width="50" height="50" relative="1" as="geometry">
            <mxPoint x="-659" y="84" as="sourcePoint" />
            <mxPoint x="-659" y="54" as="targetPoint" />
          </mxGeometry>
        </mxCell>
        <mxCell id="GY7boE5zjYNBEzBdmvgy-35" value="" style="shape=flexArrow;endArrow=classic;html=1;rounded=0;endWidth=19;endSize=2.44;width=1;fillColor=#1ba1e2;strokeColor=#006EAF;" edge="1" parent="1">
          <mxGeometry width="50" height="50" relative="1" as="geometry">
            <mxPoint x="-635" y="84" as="sourcePoint" />
            <mxPoint x="-635" y="54" as="targetPoint" />
          </mxGeometry>
        </mxCell>
        <mxCell id="GY7boE5zjYNBEzBdmvgy-36" value="" style="shape=flexArrow;endArrow=classic;html=1;rounded=0;endWidth=19;endSize=2.44;width=1;fillColor=#1ba1e2;strokeColor=#006EAF;" edge="1" parent="1">
          <mxGeometry width="50" height="50" relative="1" as="geometry">
            <mxPoint x="-682" y="84" as="sourcePoint" />
            <mxPoint x="-682" y="54" as="targetPoint" />
          </mxGeometry>
        </mxCell>
        <mxCell id="GY7boE5zjYNBEzBdmvgy-37" value="" style="shape=flexArrow;endArrow=classic;html=1;rounded=0;fillColor=#60a917;strokeColor=#2D7600;endWidth=19;endSize=2.44;width=1;" edge="1" parent="1">
          <mxGeometry width="50" height="50" relative="1" as="geometry">
            <mxPoint x="-618" y="84" as="sourcePoint" />
            <mxPoint x="-618" y="114" as="targetPoint" />
          </mxGeometry>
        </mxCell>
        <mxCell id="GY7boE5zjYNBEzBdmvgy-38" value="" style="shape=flexArrow;endArrow=classic;html=1;rounded=0;fillColor=#60a917;strokeColor=#2D7600;endWidth=19;endSize=2.44;width=1;" edge="1" parent="1">
          <mxGeometry width="50" height="50" relative="1" as="geometry">
            <mxPoint x="-595" y="84" as="sourcePoint" />
            <mxPoint x="-595" y="114" as="targetPoint" />
          </mxGeometry>
        </mxCell>
        <mxCell id="GY7boE5zjYNBEzBdmvgy-39" value="" style="shape=flexArrow;endArrow=classic;html=1;rounded=0;fillColor=#60a917;strokeColor=#2D7600;endWidth=19;endSize=2.44;width=1;" edge="1" parent="1">
          <mxGeometry width="50" height="50" relative="1" as="geometry">
            <mxPoint x="-574" y="84" as="sourcePoint" />
            <mxPoint x="-574" y="114" as="targetPoint" />
          </mxGeometry>
        </mxCell>
        <mxCell id="GY7boE5zjYNBEzBdmvgy-40" value="" style="shape=flexArrow;endArrow=classic;html=1;rounded=0;endWidth=19;endSize=2.44;width=1;fillColor=#1ba1e2;strokeColor=#006EAF;" edge="1" parent="1">
          <mxGeometry width="50" height="50" relative="1" as="geometry">
            <mxPoint x="-554" y="84" as="sourcePoint" />
            <mxPoint x="-554" y="54" as="targetPoint" />
          </mxGeometry>
        </mxCell>
        <mxCell id="GY7boE5zjYNBEzBdmvgy-41" value="" style="shape=flexArrow;endArrow=classic;html=1;rounded=0;fillColor=#60a917;strokeColor=#2D7600;endWidth=19;endSize=2.44;width=1;" edge="1" parent="1">
          <mxGeometry width="50" height="50" relative="1" as="geometry">
            <mxPoint x="-533" y="83" as="sourcePoint" />
            <mxPoint x="-533" y="113" as="targetPoint" />
          </mxGeometry>
        </mxCell>
        <mxCell id="GY7boE5zjYNBEzBdmvgy-42" value="" style="shape=flexArrow;endArrow=classic;html=1;rounded=0;fillColor=#60a917;strokeColor=#2D7600;endWidth=19;endSize=2.44;width=1;" edge="1" parent="1">
          <mxGeometry width="50" height="50" relative="1" as="geometry">
            <mxPoint x="-511" y="84" as="sourcePoint" />
            <mxPoint x="-511" y="114" as="targetPoint" />
          </mxGeometry>
        </mxCell>
        <mxCell id="GY7boE5zjYNBEzBdmvgy-43" value="" style="shape=flexArrow;endArrow=classic;html=1;rounded=0;endWidth=19;endSize=2.44;width=1;fillColor=#1ba1e2;strokeColor=#006EAF;" edge="1" parent="1">
          <mxGeometry width="50" height="50" relative="1" as="geometry">
            <mxPoint x="-490" y="84" as="sourcePoint" />
            <mxPoint x="-490" y="54" as="targetPoint" />
          </mxGeometry>
        </mxCell>
        <mxCell id="GY7boE5zjYNBEzBdmvgy-44" value="&lt;font size=&quot;1&quot;&gt;&lt;b&gt;&lt;font style=&quot;font-size: 18px;&quot;&gt;Dir_Traces&lt;/font&gt;&lt;/b&gt;&lt;/font&gt;" style="text;html=1;align=center;verticalAlign=middle;resizable=0;points=[];autosize=1;strokeColor=none;fillColor=none;" vertex="1" parent="1">
          <mxGeometry x="-631" y="-2" width="110" height="34" as="geometry" />
        </mxCell>
        <mxCell id="GY7boE5zjYNBEzBdmvgy-45" value="&lt;font size=&quot;1&quot;&gt;&lt;b&gt;&lt;font style=&quot;font-size: 18px;&quot;&gt;Label&lt;/font&gt;&lt;/b&gt;&lt;/font&gt;" style="text;html=1;align=center;verticalAlign=middle;resizable=0;points=[];autosize=1;strokeColor=none;fillColor=none;" vertex="1" parent="1">
          <mxGeometry x="-791" y="-2" width="65" height="34" as="geometry" />
        </mxCell>
        <mxCell id="GY7boE5zjYNBEzBdmvgy-46" value="&lt;div style=&quot;font-size: 17px;&quot;&gt;&lt;font style=&quot;font-size: 17px;&quot;&gt;&lt;b&gt;&lt;font style=&quot;font-size: 17px;&quot;&gt;0&lt;/font&gt;&lt;/b&gt;&lt;/font&gt;&lt;/div&gt;&lt;div style=&quot;font-size: 17px;&quot;&gt;&lt;font style=&quot;font-size: 17px;&quot;&gt;&lt;b&gt;&lt;font style=&quot;font-size: 17px;&quot;&gt;0&lt;br&gt;&lt;/font&gt;&lt;/b&gt;&lt;/font&gt;&lt;/div&gt;&lt;div style=&quot;font-size: 17px;&quot;&gt;&lt;font style=&quot;font-size: 17px;&quot;&gt;&lt;b&gt;&lt;font style=&quot;font-size: 17px;&quot;&gt;1&lt;/font&gt;&lt;/b&gt;&lt;/font&gt;&lt;/div&gt;&lt;div style=&quot;font-size: 17px;&quot;&gt;&lt;font style=&quot;font-size: 17px;&quot;&gt;&lt;b&gt;&lt;font style=&quot;font-size: 17px;&quot;&gt;&lt;font style=&quot;font-size: 17px;&quot;&gt;0&lt;/font&gt;&lt;br&gt;&lt;/font&gt;&lt;/b&gt;&lt;/font&gt;&lt;/div&gt;" style="rounded=0;whiteSpace=wrap;html=1;" vertex="1" parent="1">
          <mxGeometry x="-775.5" y="37" width="34" height="80" as="geometry" />
        </mxCell>
        <mxCell id="GY7boE5zjYNBEzBdmvgy-47" value="" style="shape=umlDestroy;whiteSpace=wrap;html=1;strokeWidth=3;targetShapes=umlLifeline;fillColor=#e51400;fontColor=#ffffff;strokeColor=#B20000;" vertex="1" parent="1">
          <mxGeometry x="-602" y="117" width="10" height="14" as="geometry" />
        </mxCell>
        <mxCell id="GY7boE5zjYNBEzBdmvgy-48" value="" style="shape=umlDestroy;whiteSpace=wrap;html=1;strokeWidth=3;targetShapes=umlLifeline;fillColor=#e51400;fontColor=#ffffff;strokeColor=#B20000;" vertex="1" parent="1">
          <mxGeometry x="-642" y="37" width="10" height="14" as="geometry" />
        </mxCell>
        <mxCell id="GY7boE5zjYNBEzBdmvgy-49" value="" style="endArrow=classic;html=1;rounded=0;" edge="1" parent="1">
          <mxGeometry width="50" height="50" relative="1" as="geometry">
            <mxPoint x="-191" y="84" as="sourcePoint" />
            <mxPoint x="91" y="84" as="targetPoint" />
          </mxGeometry>
        </mxCell>
        <mxCell id="GY7boE5zjYNBEzBdmvgy-50" value="" style="shape=flexArrow;endArrow=classic;html=1;rounded=0;endWidth=19;endSize=2.44;width=1;fillColor=#1ba1e2;strokeColor=#006EAF;" edge="1" parent="1">
          <mxGeometry width="50" height="50" relative="1" as="geometry">
            <mxPoint x="-143" y="84" as="sourcePoint" />
            <mxPoint x="-143" y="54" as="targetPoint" />
          </mxGeometry>
        </mxCell>
        <mxCell id="GY7boE5zjYNBEzBdmvgy-51" value="" style="shape=flexArrow;endArrow=classic;html=1;rounded=0;endWidth=19;endSize=2.44;width=1;fillColor=#1ba1e2;strokeColor=#006EAF;" edge="1" parent="1">
          <mxGeometry width="50" height="50" relative="1" as="geometry">
            <mxPoint x="-166" y="84" as="sourcePoint" />
            <mxPoint x="-166" y="54" as="targetPoint" />
          </mxGeometry>
        </mxCell>
        <mxCell id="GY7boE5zjYNBEzBdmvgy-52" value="" style="shape=flexArrow;endArrow=classic;html=1;rounded=0;fillColor=#60a917;strokeColor=#2D7600;endWidth=19;endSize=2.44;width=1;" edge="1" parent="1">
          <mxGeometry width="50" height="50" relative="1" as="geometry">
            <mxPoint x="-58" y="84" as="sourcePoint" />
            <mxPoint x="-58" y="114" as="targetPoint" />
          </mxGeometry>
        </mxCell>
        <mxCell id="GY7boE5zjYNBEzBdmvgy-53" value="" style="shape=flexArrow;endArrow=classic;html=1;rounded=0;endWidth=19;endSize=2.44;width=1;fillColor=#1ba1e2;strokeColor=#006EAF;" edge="1" parent="1">
          <mxGeometry width="50" height="50" relative="1" as="geometry">
            <mxPoint x="-38" y="84" as="sourcePoint" />
            <mxPoint x="-38" y="54" as="targetPoint" />
          </mxGeometry>
        </mxCell>
        <mxCell id="GY7boE5zjYNBEzBdmvgy-54" value="" style="shape=flexArrow;endArrow=classic;html=1;rounded=0;fillColor=#60a917;strokeColor=#2D7600;endWidth=19;endSize=2.44;width=1;" edge="1" parent="1">
          <mxGeometry width="50" height="50" relative="1" as="geometry">
            <mxPoint x="-17" y="83" as="sourcePoint" />
            <mxPoint x="-17" y="113" as="targetPoint" />
          </mxGeometry>
        </mxCell>
        <mxCell id="GY7boE5zjYNBEzBdmvgy-55" value="" style="shape=flexArrow;endArrow=classic;html=1;rounded=0;fillColor=#60a917;strokeColor=#2D7600;endWidth=19;endSize=2.44;width=1;" edge="1" parent="1">
          <mxGeometry width="50" height="50" relative="1" as="geometry">
            <mxPoint x="5" y="84" as="sourcePoint" />
            <mxPoint x="5" y="114" as="targetPoint" />
          </mxGeometry>
        </mxCell>
        <mxCell id="GY7boE5zjYNBEzBdmvgy-56" value="" style="shape=flexArrow;endArrow=classic;html=1;rounded=0;endWidth=19;endSize=2.44;width=1;fillColor=#1ba1e2;strokeColor=#006EAF;" edge="1" parent="1">
          <mxGeometry width="50" height="50" relative="1" as="geometry">
            <mxPoint x="26" y="84" as="sourcePoint" />
            <mxPoint x="26" y="54" as="targetPoint" />
          </mxGeometry>
        </mxCell>
        <mxCell id="GY7boE5zjYNBEzBdmvgy-57" value="&lt;font size=&quot;1&quot;&gt;&lt;b&gt;&lt;font style=&quot;font-size: 18px;&quot;&gt;Dir_Traces&lt;/font&gt;&lt;/b&gt;&lt;/font&gt;" style="text;html=1;align=center;verticalAlign=middle;resizable=0;points=[];autosize=1;strokeColor=none;fillColor=none;" vertex="1" parent="1">
          <mxGeometry x="-115" y="-2" width="110" height="34" as="geometry" />
        </mxCell>
        <mxCell id="GY7boE5zjYNBEzBdmvgy-58" value="&lt;font size=&quot;1&quot;&gt;&lt;b&gt;&lt;font style=&quot;font-size: 18px;&quot;&gt;Label&lt;/font&gt;&lt;/b&gt;&lt;/font&gt;" style="text;html=1;align=center;verticalAlign=middle;resizable=0;points=[];autosize=1;strokeColor=none;fillColor=none;" vertex="1" parent="1">
          <mxGeometry x="-275" y="-2" width="65" height="34" as="geometry" />
        </mxCell>
        <mxCell id="GY7boE5zjYNBEzBdmvgy-59" value="&lt;div style=&quot;font-size: 17px;&quot;&gt;&lt;font style=&quot;font-size: 17px;&quot;&gt;&lt;b&gt;&lt;font style=&quot;font-size: 17px;&quot;&gt;0&lt;/font&gt;&lt;/b&gt;&lt;/font&gt;&lt;/div&gt;&lt;div style=&quot;font-size: 17px;&quot;&gt;&lt;font style=&quot;font-size: 17px;&quot;&gt;&lt;b&gt;&lt;font style=&quot;font-size: 17px;&quot;&gt;0&lt;br&gt;&lt;/font&gt;&lt;/b&gt;&lt;/font&gt;&lt;/div&gt;&lt;div style=&quot;font-size: 17px;&quot;&gt;&lt;font style=&quot;font-size: 17px;&quot;&gt;&lt;b&gt;&lt;font style=&quot;font-size: 17px;&quot;&gt;1&lt;/font&gt;&lt;/b&gt;&lt;/font&gt;&lt;/div&gt;&lt;div style=&quot;font-size: 17px;&quot;&gt;&lt;font style=&quot;font-size: 17px;&quot;&gt;&lt;b&gt;&lt;font style=&quot;font-size: 17px;&quot;&gt;&lt;font style=&quot;font-size: 17px;&quot;&gt;0&lt;/font&gt;&lt;br&gt;&lt;/font&gt;&lt;/b&gt;&lt;/font&gt;&lt;/div&gt;" style="rounded=0;whiteSpace=wrap;html=1;" vertex="1" parent="1">
          <mxGeometry x="-259.5" y="37" width="34" height="80" as="geometry" />
        </mxCell>
        <mxCell id="GY7boE5zjYNBEzBdmvgy-60" value="" style="endArrow=classic;html=1;rounded=0;" edge="1" parent="1">
          <mxGeometry width="50" height="50" relative="1" as="geometry">
            <mxPoint x="-707" y="430" as="sourcePoint" />
            <mxPoint x="-425" y="430" as="targetPoint" />
          </mxGeometry>
        </mxCell>
        <mxCell id="GY7boE5zjYNBEzBdmvgy-61" value="" style="shape=flexArrow;endArrow=classic;html=1;rounded=0;fillColor=#ffe6cc;strokeColor=#d79b00;" edge="1" parent="1">
          <mxGeometry width="50" height="50" relative="1" as="geometry">
            <mxPoint x="-382" y="430" as="sourcePoint" />
            <mxPoint x="-286" y="430" as="targetPoint" />
          </mxGeometry>
        </mxCell>
        <mxCell id="GY7boE5zjYNBEzBdmvgy-62" value="&lt;font size=&quot;1&quot;&gt;&lt;b style=&quot;font-size: 18px;&quot;&gt;旋转：后旋两步&lt;/b&gt;&lt;/font&gt;" style="text;html=1;align=center;verticalAlign=middle;resizable=0;points=[];autosize=1;strokeColor=none;fillColor=none;" vertex="1" parent="1">
          <mxGeometry x="-405" y="382" width="144" height="34" as="geometry" />
        </mxCell>
        <mxCell id="GY7boE5zjYNBEzBdmvgy-63" value="" style="shape=flexArrow;endArrow=classic;html=1;rounded=0;endWidth=19;endSize=2.44;width=1;fillColor=#1ba1e2;strokeColor=#006EAF;" edge="1" parent="1">
          <mxGeometry width="50" height="50" relative="1" as="geometry">
            <mxPoint x="-659" y="430" as="sourcePoint" />
            <mxPoint x="-659" y="400" as="targetPoint" />
          </mxGeometry>
        </mxCell>
        <mxCell id="GY7boE5zjYNBEzBdmvgy-64" value="" style="shape=flexArrow;endArrow=classic;html=1;rounded=0;endWidth=19;endSize=2.44;width=1;fillColor=#1ba1e2;strokeColor=#006EAF;" edge="1" parent="1">
          <mxGeometry width="50" height="50" relative="1" as="geometry">
            <mxPoint x="-635" y="430" as="sourcePoint" />
            <mxPoint x="-635" y="400" as="targetPoint" />
          </mxGeometry>
        </mxCell>
        <mxCell id="GY7boE5zjYNBEzBdmvgy-65" value="" style="shape=flexArrow;endArrow=classic;html=1;rounded=0;endWidth=19;endSize=2.44;width=1;fillColor=#1ba1e2;strokeColor=#006EAF;" edge="1" parent="1">
          <mxGeometry width="50" height="50" relative="1" as="geometry">
            <mxPoint x="-682" y="430" as="sourcePoint" />
            <mxPoint x="-682" y="400" as="targetPoint" />
          </mxGeometry>
        </mxCell>
        <mxCell id="GY7boE5zjYNBEzBdmvgy-66" value="" style="shape=flexArrow;endArrow=classic;html=1;rounded=0;fillColor=#60a917;strokeColor=#2D7600;endWidth=19;endSize=2.44;width=1;" edge="1" parent="1">
          <mxGeometry width="50" height="50" relative="1" as="geometry">
            <mxPoint x="-618" y="430" as="sourcePoint" />
            <mxPoint x="-618" y="460" as="targetPoint" />
          </mxGeometry>
        </mxCell>
        <mxCell id="GY7boE5zjYNBEzBdmvgy-67" value="" style="shape=flexArrow;endArrow=classic;html=1;rounded=0;fillColor=#60a917;strokeColor=#2D7600;endWidth=19;endSize=2.44;width=1;" edge="1" parent="1">
          <mxGeometry width="50" height="50" relative="1" as="geometry">
            <mxPoint x="-595" y="430" as="sourcePoint" />
            <mxPoint x="-595" y="460" as="targetPoint" />
          </mxGeometry>
        </mxCell>
        <mxCell id="GY7boE5zjYNBEzBdmvgy-68" value="" style="shape=flexArrow;endArrow=classic;html=1;rounded=0;fillColor=#60a917;strokeColor=#2D7600;endWidth=19;endSize=2.44;width=1;" edge="1" parent="1">
          <mxGeometry width="50" height="50" relative="1" as="geometry">
            <mxPoint x="-574" y="430" as="sourcePoint" />
            <mxPoint x="-574" y="460" as="targetPoint" />
          </mxGeometry>
        </mxCell>
        <mxCell id="GY7boE5zjYNBEzBdmvgy-69" value="" style="shape=flexArrow;endArrow=classic;html=1;rounded=0;endWidth=19;endSize=2.44;width=1;fillColor=#1ba1e2;strokeColor=#006EAF;" edge="1" parent="1">
          <mxGeometry width="50" height="50" relative="1" as="geometry">
            <mxPoint x="-554" y="430" as="sourcePoint" />
            <mxPoint x="-554" y="400" as="targetPoint" />
          </mxGeometry>
        </mxCell>
        <mxCell id="GY7boE5zjYNBEzBdmvgy-70" value="" style="shape=flexArrow;endArrow=classic;html=1;rounded=0;fillColor=#60a917;strokeColor=#2D7600;endWidth=19;endSize=2.44;width=1;" edge="1" parent="1">
          <mxGeometry width="50" height="50" relative="1" as="geometry">
            <mxPoint x="-533" y="429" as="sourcePoint" />
            <mxPoint x="-533" y="459" as="targetPoint" />
          </mxGeometry>
        </mxCell>
        <mxCell id="GY7boE5zjYNBEzBdmvgy-71" value="" style="shape=flexArrow;endArrow=classic;html=1;rounded=0;fillColor=#60a917;strokeColor=#2D7600;endWidth=19;endSize=2.44;width=1;" edge="1" parent="1">
          <mxGeometry width="50" height="50" relative="1" as="geometry">
            <mxPoint x="-511" y="430" as="sourcePoint" />
            <mxPoint x="-511" y="460" as="targetPoint" />
          </mxGeometry>
        </mxCell>
        <mxCell id="GY7boE5zjYNBEzBdmvgy-72" value="" style="shape=flexArrow;endArrow=classic;html=1;rounded=0;endWidth=19;endSize=2.44;width=1;fillColor=#1ba1e2;strokeColor=#006EAF;" edge="1" parent="1">
          <mxGeometry width="50" height="50" relative="1" as="geometry">
            <mxPoint x="-490" y="430" as="sourcePoint" />
            <mxPoint x="-490" y="400" as="targetPoint" />
          </mxGeometry>
        </mxCell>
        <mxCell id="GY7boE5zjYNBEzBdmvgy-73" value="&lt;font size=&quot;1&quot;&gt;&lt;b&gt;&lt;font style=&quot;font-size: 18px;&quot;&gt;Dir_Traces&lt;/font&gt;&lt;/b&gt;&lt;/font&gt;" style="text;html=1;align=center;verticalAlign=middle;resizable=0;points=[];autosize=1;strokeColor=none;fillColor=none;" vertex="1" parent="1">
          <mxGeometry x="-631" y="344" width="110" height="34" as="geometry" />
        </mxCell>
        <mxCell id="GY7boE5zjYNBEzBdmvgy-74" value="&lt;font size=&quot;1&quot;&gt;&lt;b&gt;&lt;font style=&quot;font-size: 18px;&quot;&gt;Label&lt;/font&gt;&lt;/b&gt;&lt;/font&gt;" style="text;html=1;align=center;verticalAlign=middle;resizable=0;points=[];autosize=1;strokeColor=none;fillColor=none;" vertex="1" parent="1">
          <mxGeometry x="-791" y="344" width="65" height="34" as="geometry" />
        </mxCell>
        <mxCell id="GY7boE5zjYNBEzBdmvgy-75" value="&lt;div style=&quot;font-size: 17px;&quot;&gt;&lt;font style=&quot;font-size: 17px;&quot;&gt;&lt;b&gt;&lt;font style=&quot;font-size: 17px;&quot;&gt;0&lt;/font&gt;&lt;/b&gt;&lt;/font&gt;&lt;/div&gt;&lt;div style=&quot;font-size: 17px;&quot;&gt;&lt;font style=&quot;font-size: 17px;&quot;&gt;&lt;b&gt;&lt;font style=&quot;font-size: 17px;&quot;&gt;0&lt;br&gt;&lt;/font&gt;&lt;/b&gt;&lt;/font&gt;&lt;/div&gt;&lt;div style=&quot;font-size: 17px;&quot;&gt;&lt;font style=&quot;font-size: 17px;&quot;&gt;&lt;b&gt;&lt;font style=&quot;font-size: 17px;&quot;&gt;1&lt;/font&gt;&lt;/b&gt;&lt;/font&gt;&lt;/div&gt;&lt;div style=&quot;font-size: 17px;&quot;&gt;&lt;font style=&quot;font-size: 17px;&quot;&gt;&lt;b&gt;&lt;font style=&quot;font-size: 17px;&quot;&gt;&lt;font style=&quot;font-size: 17px;&quot;&gt;0&lt;/font&gt;&lt;br&gt;&lt;/font&gt;&lt;/b&gt;&lt;/font&gt;&lt;/div&gt;" style="rounded=0;whiteSpace=wrap;html=1;" vertex="1" parent="1">
          <mxGeometry x="-775.5" y="383" width="34" height="80" as="geometry" />
        </mxCell>
        <mxCell id="GY7boE5zjYNBEzBdmvgy-76" value="" style="endArrow=classic;html=1;rounded=0;" edge="1" parent="1">
          <mxGeometry width="50" height="50" relative="1" as="geometry">
            <mxPoint x="-191" y="430" as="sourcePoint" />
            <mxPoint x="91" y="430" as="targetPoint" />
          </mxGeometry>
        </mxCell>
        <mxCell id="GY7boE5zjYNBEzBdmvgy-77" value="" style="shape=flexArrow;endArrow=classic;html=1;rounded=0;endWidth=19;endSize=2.44;width=1;fillColor=#1ba1e2;strokeColor=#006EAF;" edge="1" parent="1">
          <mxGeometry width="50" height="50" relative="1" as="geometry">
            <mxPoint x="26" y="430" as="sourcePoint" />
            <mxPoint x="26" y="400" as="targetPoint" />
          </mxGeometry>
        </mxCell>
        <mxCell id="GY7boE5zjYNBEzBdmvgy-78" value="" style="shape=flexArrow;endArrow=classic;html=1;rounded=0;endWidth=19;endSize=2.44;width=1;fillColor=#1ba1e2;strokeColor=#006EAF;" edge="1" parent="1">
          <mxGeometry width="50" height="50" relative="1" as="geometry">
            <mxPoint x="-166" y="430" as="sourcePoint" />
            <mxPoint x="-166" y="400" as="targetPoint" />
          </mxGeometry>
        </mxCell>
        <mxCell id="GY7boE5zjYNBEzBdmvgy-79" value="" style="shape=flexArrow;endArrow=classic;html=1;rounded=0;endWidth=19;endSize=2.44;width=1;fillColor=#1ba1e2;strokeColor=#006EAF;" edge="1" parent="1">
          <mxGeometry width="50" height="50" relative="1" as="geometry">
            <mxPoint x="5" y="430" as="sourcePoint" />
            <mxPoint x="5" y="400" as="targetPoint" />
          </mxGeometry>
        </mxCell>
        <mxCell id="GY7boE5zjYNBEzBdmvgy-80" value="" style="shape=flexArrow;endArrow=classic;html=1;rounded=0;fillColor=#60a917;strokeColor=#2D7600;endWidth=19;endSize=2.44;width=1;" edge="1" parent="1">
          <mxGeometry width="50" height="50" relative="1" as="geometry">
            <mxPoint x="-145" y="430" as="sourcePoint" />
            <mxPoint x="-145" y="460" as="targetPoint" />
          </mxGeometry>
        </mxCell>
        <mxCell id="GY7boE5zjYNBEzBdmvgy-81" value="" style="shape=flexArrow;endArrow=classic;html=1;rounded=0;fillColor=#60a917;strokeColor=#2D7600;endWidth=19;endSize=2.44;width=1;" edge="1" parent="1">
          <mxGeometry width="50" height="50" relative="1" as="geometry">
            <mxPoint x="-122" y="430" as="sourcePoint" />
            <mxPoint x="-122" y="460" as="targetPoint" />
          </mxGeometry>
        </mxCell>
        <mxCell id="GY7boE5zjYNBEzBdmvgy-82" value="" style="shape=flexArrow;endArrow=classic;html=1;rounded=0;fillColor=#60a917;strokeColor=#2D7600;endWidth=19;endSize=2.44;width=1;" edge="1" parent="1">
          <mxGeometry width="50" height="50" relative="1" as="geometry">
            <mxPoint x="-101" y="430" as="sourcePoint" />
            <mxPoint x="-101" y="460" as="targetPoint" />
          </mxGeometry>
        </mxCell>
        <mxCell id="GY7boE5zjYNBEzBdmvgy-83" value="" style="shape=flexArrow;endArrow=classic;html=1;rounded=0;endWidth=19;endSize=2.44;width=1;fillColor=#1ba1e2;strokeColor=#006EAF;" edge="1" parent="1">
          <mxGeometry width="50" height="50" relative="1" as="geometry">
            <mxPoint x="-81" y="430" as="sourcePoint" />
            <mxPoint x="-81" y="400" as="targetPoint" />
          </mxGeometry>
        </mxCell>
        <mxCell id="GY7boE5zjYNBEzBdmvgy-84" value="" style="shape=flexArrow;endArrow=classic;html=1;rounded=0;fillColor=#60a917;strokeColor=#2D7600;endWidth=19;endSize=2.44;width=1;" edge="1" parent="1">
          <mxGeometry width="50" height="50" relative="1" as="geometry">
            <mxPoint x="-60" y="429" as="sourcePoint" />
            <mxPoint x="-60" y="459" as="targetPoint" />
          </mxGeometry>
        </mxCell>
        <mxCell id="GY7boE5zjYNBEzBdmvgy-85" value="" style="shape=flexArrow;endArrow=classic;html=1;rounded=0;fillColor=#60a917;strokeColor=#2D7600;endWidth=19;endSize=2.44;width=1;" edge="1" parent="1">
          <mxGeometry width="50" height="50" relative="1" as="geometry">
            <mxPoint x="-38" y="430" as="sourcePoint" />
            <mxPoint x="-38" y="460" as="targetPoint" />
          </mxGeometry>
        </mxCell>
        <mxCell id="GY7boE5zjYNBEzBdmvgy-86" value="" style="shape=flexArrow;endArrow=classic;html=1;rounded=0;endWidth=19;endSize=2.44;width=1;fillColor=#1ba1e2;strokeColor=#006EAF;" edge="1" parent="1">
          <mxGeometry width="50" height="50" relative="1" as="geometry">
            <mxPoint x="-17" y="430" as="sourcePoint" />
            <mxPoint x="-17" y="400" as="targetPoint" />
          </mxGeometry>
        </mxCell>
        <mxCell id="GY7boE5zjYNBEzBdmvgy-87" value="&lt;font size=&quot;1&quot;&gt;&lt;b&gt;&lt;font style=&quot;font-size: 18px;&quot;&gt;Dir_Traces&lt;/font&gt;&lt;/b&gt;&lt;/font&gt;" style="text;html=1;align=center;verticalAlign=middle;resizable=0;points=[];autosize=1;strokeColor=none;fillColor=none;" vertex="1" parent="1">
          <mxGeometry x="-115" y="344" width="110" height="34" as="geometry" />
        </mxCell>
        <mxCell id="GY7boE5zjYNBEzBdmvgy-88" value="&lt;font size=&quot;1&quot;&gt;&lt;b&gt;&lt;font style=&quot;font-size: 18px;&quot;&gt;Label&lt;/font&gt;&lt;/b&gt;&lt;/font&gt;" style="text;html=1;align=center;verticalAlign=middle;resizable=0;points=[];autosize=1;strokeColor=none;fillColor=none;" vertex="1" parent="1">
          <mxGeometry x="-275" y="344" width="65" height="34" as="geometry" />
        </mxCell>
        <mxCell id="GY7boE5zjYNBEzBdmvgy-89" value="&lt;div style=&quot;font-size: 17px;&quot;&gt;&lt;font style=&quot;font-size: 17px;&quot;&gt;&lt;b&gt;&lt;font style=&quot;font-size: 17px;&quot;&gt;0&lt;/font&gt;&lt;/b&gt;&lt;/font&gt;&lt;/div&gt;&lt;div style=&quot;font-size: 17px;&quot;&gt;&lt;font style=&quot;font-size: 17px;&quot;&gt;&lt;b&gt;&lt;font style=&quot;font-size: 17px;&quot;&gt;0&lt;br&gt;&lt;/font&gt;&lt;/b&gt;&lt;/font&gt;&lt;/div&gt;&lt;div style=&quot;font-size: 17px;&quot;&gt;&lt;font style=&quot;font-size: 17px;&quot;&gt;&lt;b&gt;&lt;font style=&quot;font-size: 17px;&quot;&gt;1&lt;/font&gt;&lt;/b&gt;&lt;/font&gt;&lt;/div&gt;&lt;div style=&quot;font-size: 17px;&quot;&gt;&lt;font style=&quot;font-size: 17px;&quot;&gt;&lt;b&gt;&lt;font style=&quot;font-size: 17px;&quot;&gt;&lt;font style=&quot;font-size: 17px;&quot;&gt;0&lt;/font&gt;&lt;br&gt;&lt;/font&gt;&lt;/b&gt;&lt;/font&gt;&lt;/div&gt;" style="rounded=0;whiteSpace=wrap;html=1;" vertex="1" parent="1">
          <mxGeometry x="-259.5" y="383" width="34" height="80" as="geometry" />
        </mxCell>
        <mxCell id="GY7boE5zjYNBEzBdmvgy-90" value="" style="shape=umlDestroy;whiteSpace=wrap;html=1;strokeWidth=3;targetShapes=umlLifeline;fillColor=#e51400;fontColor=#ffffff;strokeColor=#B20000;" vertex="1" parent="1">
          <mxGeometry x="-624" y="117" width="10" height="14" as="geometry" />
        </mxCell>
        <mxCell id="GY7boE5zjYNBEzBdmvgy-91" value="" style="rounded=0;whiteSpace=wrap;html=1;dashed=1;strokeColor=#000000;" vertex="1" parent="1">
          <mxGeometry x="-693" y="376" width="40" height="16" as="geometry" />
        </mxCell>
        <mxCell id="GY7boE5zjYNBEzBdmvgy-92" value="" style="rounded=0;whiteSpace=wrap;html=1;dashed=1;strokeColor=#000000;" vertex="1" parent="1">
          <mxGeometry x="-477" y="376" width="40" height="16" as="geometry" />
        </mxCell>
        <mxCell id="GY7boE5zjYNBEzBdmvgy-93" value="" style="shape=flexArrow;endArrow=classic;html=1;rounded=0;endWidth=19;endSize=2.44;width=1;" edge="1" parent="1">
          <mxGeometry width="50" height="50" relative="1" as="geometry">
            <mxPoint x="-642" y="383.5" as="sourcePoint" />
            <mxPoint x="-487" y="383.5" as="targetPoint" />
          </mxGeometry>
        </mxCell>
        <mxCell id="GY7boE5zjYNBEzBdmvgy-94" value="" style="rounded=0;whiteSpace=wrap;html=1;fillColor=none;" vertex="1" parent="1">
          <mxGeometry x="-796" y="168.5" width="905" height="135" as="geometry" />
        </mxCell>
        <mxCell id="GY7boE5zjYNBEzBdmvgy-95" value="" style="rounded=0;whiteSpace=wrap;html=1;fillColor=none;" vertex="1" parent="1">
          <mxGeometry x="-817.5" y="-81" width="948" height="584" as="geometry" />
        </mxCell>
        <mxCell id="GY7boE5zjYNBEzBdmvgy-96" value="" style="shape=flexArrow;endArrow=classic;html=1;rounded=0;endWidth=19;endSize=2.44;width=1;fillColor=#1ba1e2;strokeColor=#006EAF;" edge="1" parent="1">
          <mxGeometry width="50" height="50" relative="1" as="geometry">
            <mxPoint x="-545.9985714285762" y="-36" as="sourcePoint" />
            <mxPoint x="-545.9985714285762" y="-66" as="targetPoint" />
          </mxGeometry>
        </mxCell>
        <mxCell id="GY7boE5zjYNBEzBdmvgy-97" value="" style="shape=flexArrow;endArrow=classic;html=1;rounded=0;fillColor=#60a917;strokeColor=#2D7600;endWidth=19;endSize=2.44;width=1;" edge="1" parent="1">
          <mxGeometry width="50" height="50" relative="1" as="geometry">
            <mxPoint x="-287.8557142857192" y="-66" as="sourcePoint" />
            <mxPoint x="-287.8557142857192" y="-36" as="targetPoint" />
          </mxGeometry>
        </mxCell>
        <mxCell id="GY7boE5zjYNBEzBdmvgy-98" value="&lt;b&gt;&lt;font style=&quot;font-size: 18px;&quot;&gt;Outgoing Tor Cells&lt;/font&gt;&lt;/b&gt;" style="text;html=1;align=center;verticalAlign=middle;resizable=0;points=[];autosize=1;strokeColor=none;fillColor=none;" vertex="1" parent="1">
          <mxGeometry x="-532.57" y="-71" width="179" height="34" as="geometry" />
        </mxCell>
        <mxCell id="GY7boE5zjYNBEzBdmvgy-99" value="&lt;b&gt;&lt;font style=&quot;font-size: 18px;&quot;&gt;Incoming Tor Cells&lt;/font&gt;&lt;/b&gt;" style="text;html=1;align=center;verticalAlign=middle;resizable=0;points=[];autosize=1;strokeColor=none;fillColor=none;" vertex="1" parent="1">
          <mxGeometry x="-273.57" y="-71" width="179" height="34" as="geometry" />
        </mxCell>
        <mxCell id="GY7boE5zjYNBEzBdmvgy-100" value="" style="rounded=0;whiteSpace=wrap;html=1;fillColor=none;" vertex="1" parent="1">
          <mxGeometry x="-796" y="-4" width="905" height="132" as="geometry" />
        </mxCell>
        <mxCell id="GY7boE5zjYNBEzBdmvgy-101" value="" style="rounded=0;whiteSpace=wrap;html=1;fillColor=none;" vertex="1" parent="1">
          <mxGeometry x="-796" y="346" width="905" height="129" as="geometry" />
        </mxCell>
      </root>
    </mxGraphModel>
  </diagram>
</mxfile>
